<?xml version="1.0" standalone="no"?><!DOCTYPE svg PUBLIC "-//W3C//DTD SVG 1.1//EN" "http://www.w3.org/Graphics/SVG/1.1/DTD/svg11.dtd"><svg t="1557716675484" class="icon" style="" viewBox="0 0 1024 1024" version="1.1" xmlns="http://www.w3.org/2000/svg" p-id="9297" xmlns:xlink="http://www.w3.org/1999/xlink" width="36" height="36"><defs><style type="text/css"></style></defs><path d="M738.830419 554.463889a49.282777 49.282777 0 0 1-49.282777-49.282777V418.320218a49.282777 49.282777 0 0 1 98.565554 0v89.325033a49.282777 49.282777 0 0 1-49.282777 46.818638z m-157.704885-49.282777V418.320218a49.282777 49.282777 0 1 0-98.565554 0v89.325033a49.282777 49.282777 0 0 0 98.565554 0z m228.548877 422.599811A487.89949 487.89949 0 0 0 1004.341379 571.71286a492.827768 492.827768 0 0 0-123.206942-355.452027 460.793963 460.793963 0 0 0-533.486058-102.261762A213.764044 213.764044 0 0 0 173.92659 0.03265a52.36295 52.36295 0 0 0-41.274325 17.865006 48.666742 48.666742 0 0 0-9.240521 43.738465l5.544313 20.94518a410.279117 410.279117 0 0 1 24.641388 141.071948 246.413884 246.413884 0 0 0-43.12243 39.426222c-123.206942 141.071949-98.565554 373.317034-56.059158 466.95431a489.13156 489.13156 0 0 0 339.435125 279.063723 536.566232 536.566232 0 0 0 123.206942 14.784833 471.266553 471.266553 0 0 0 292.616487-93.637276z m-539.030371-739.241652a48.050707 48.050707 0 0 0 28.953631 36.962083 48.666742 48.666742 0 0 0 46.818638-4.312243 365.308583 365.308583 0 0 1 465.722241 61.603471 397.958422 397.958422 0 0 1 93.021241 280.911827 389.949971 389.949971 0 0 1-157.704886 287.68821 405.966874 405.966874 0 0 1-330.810639 61.603471A396.726353 396.726353 0 0 1 141.892786 688.759455c-27.105527-61.603471-54.827089-253.190266 40.65829-359.76427a143.536087 143.536087 0 0 1 28.337597-26.489493c46.818638-30.185701 46.818638-93.021241 31.41777-167.561441a117.66263 117.66263 0 0 1 28.337597 57.907263z m-112.118317 27.105527z" p-id="9298" fill="#FF7F13"></path></svg>