<?xml version="1.0" standalone="no"?><!DOCTYPE svg PUBLIC "-//W3C//DTD SVG 1.1//EN" "http://www.w3.org/Graphics/SVG/1.1/DTD/svg11.dtd"><svg t="1556722969518" class="icon" style="" viewBox="0 0 1024 1024" version="1.1" xmlns="http://www.w3.org/2000/svg" p-id="17709" data-spm-anchor-id="a313x.7781069.0.i9" xmlns:xlink="http://www.w3.org/1999/xlink" width="12" height="12"><defs><style type="text/css"></style></defs><path d="M762.88 790.016c-7.68 0-14.848-3.072-20.48-8.704L244.736 284.16c-11.264-11.264-11.264-30.208 0-41.472 11.264-11.264 30.208-11.264 41.472 0l497.152 497.152c11.264 11.264 11.264 30.208 0 41.472C777.728 786.944 770.56 790.016 762.88 790.016z" p-id="17710" fill="#E6F0FA"></path><path d="M265.728 790.016c-7.68 0-14.848-3.072-20.48-8.704-11.264-11.264-11.264-30.208 0-41.472L742.4 242.688c11.264-11.264 30.208-11.264 41.472 0s11.264 30.208 0 41.472l-497.152 497.152C280.576 786.944 273.408 790.016 265.728 790.016z" p-id="17711" fill="#E6F0FA"></path></svg>